<?xml version="1.0" encoding="utf-8"?>
<!-- Generator: Adobe Illustrator 24.0.1, SVG Export Plug-In . SVG Version: 6.00 Build 0)  -->
<svg version="1.1" id="a811ccc3-bd41-4105-81cf-f3cac7d18e76"
	 xmlns="http://www.w3.org/2000/svg" xmlns:xlink="http://www.w3.org/1999/xlink" x="0px" y="0px" viewBox="0 0 1106 826.3"
	 style="enable-background:new 0 0 1106 826.3;" xml:space="preserve">
<style type="text/css">
	.st0{fill:#F2F2F2;}
	.st1{fill:#6C63FF;}
	.st2{fill:#3F3D56;}
	.st3{opacity:0.1;enable-background:new    ;}
	.st4{display:none;}
	.st5{display:inline;fill:#2F2E41;}
	.st6{display:inline;opacity:0.1;enable-background:new    ;}
	.st7{display:inline;fill:#A0616A;}
	.st8{display:inline;fill:#D0CDE1;}
	.st9{fill:#FFFFFF;}
	.st10{fill:#464353;}
</style>
<title>notify</title>
<circle class="st0" cx="455" cy="443.9" r="342"/>
<path class="st1" d="M914.7,192.1L879,234.4c-1.9,18.2-4.7,38.6-8.5,59.9l58.6-60.6l0.3,1.1c-3.3-16.3-8.4-31.1-15-43.7L914.7,192.1
	z"/>
<path class="st1" d="M879.4,231.2l34.6-41c-7.5-14-17.1-25.2-28.5-32.6c-0.6-0.4-1.2-0.7-1.8-1.1
	C883.6,161.5,883.5,190.7,879.4,231.2z"/>
<path class="st1" d="M923.6,362.3l0.1,1.2c2-7.5,3.7-15,5.1-22.6l-85,54.9l-0.1-0.6c-1.6,4.4-3.3,8.7-5,12.9L923.6,362.3z"/>
<path class="st1" d="M933.8,295.6l0.2,1.2c1-20.4-0.5-40.9-4.3-60.9l-59.7,61.8c-3.7,20-8.1,39-13.1,57.1L933.8,295.6z"/>
<path class="st1" d="M783,192.2c-8.8,11.6-16.5,24-22.8,37.1l98.5,112.4c4.1-15.8,7.3-31.1,10-45.3l-86.1-103.1L783,192.2z"/>
<path class="st1" d="M753.3,244.7l0.5-1.1l101.1,112.2c1.1-3.8,2.1-7.7,3.1-11.5l-98.8-112.8l0.5-1.1
	C757.5,235,755.3,239.8,753.3,244.7z"/>
<path class="st1" d="M929,338.3l0.1,1.2c2.5-13.7,4.1-27.5,4.8-41.4l-78.1,60c-3.4,12-7.1,23.6-11.1,34.7L929,338.3z"/>
<path class="st1" d="M816.3,454.9c-13.2,23-28.2,42.5-44.8,58.2c18.4-7.4,92.3-40,130.7-98.9L816.3,454.9z"/>
<path class="st1" d="M737.9,301.9c-1.5,13.3-2,26.6-1.7,40l0.6-1.2l79.3,111.2c7.3-13,13.8-26.3,19.5-40.1L737.9,301.9z"/>
<path class="st1" d="M877.9,231.1c4.4-43.8,4.2-74.2,4.2-74.7l0.8-0.3c-17.9-10.3-37.6-10-56.8-0.8L877.9,231.1z"/>
<path class="st1" d="M837.5,411.4c-0.5,1.3-1.1,2.6-1.6,3.9c-5.2,12.4-11.1,24.4-17.6,36.1l85-40.3l0,1.2
	c6.7-10.4,12-21.6,15.8-33.4c1.5-4.6,2.9-9.3,4.1-13.9L837.5,411.4z"/>
<path class="st1" d="M869.2,293.6c3.8-21.1,6.5-41.2,8.4-59.2l-53-77.5l0.6-1.1c-14.4,7.1-28.6,19.3-41.4,35.6L869.2,293.6z"/>
<path class="st1" d="M814.9,453.9l-78.7-110.4c1.9,80,29.2,165.5,31,170.9C786.1,497.5,801.8,476.7,814.9,453.9z"/>
<path class="st1" d="M836.5,409.4L836.5,409.4c6.9-16.7,12.7-33.8,17.7-51.1L752.8,245.9c-2.7,6.7-5.3,13.7-7.6,21
	c-3.3,10.4-5.6,21.1-6.9,32L836.5,409.4z"/>
<path class="st1" d="M994.9,520.7l-54.5,9.8c-13.1,12.8-28.2,26.7-44.8,40.7l83.8-9.3l-0.5,1c7.8-14.7,13.4-29.3,16.3-43.2
	L994.9,520.7z"/>
<path class="st1" d="M942.8,528.3l52.8-9.5c3.1-15.6,2.9-30.3-1.2-43.3c-0.2-0.7-0.4-1.3-0.7-2C990.5,477.3,971.7,499.8,942.8,528.3
	z"/>
<path class="st1" d="M893.2,657.5l-0.7,1c6.3-4.5,12.5-9.2,18.4-14.1l-100.5-11.9l0.3-0.5c-4,2.3-8,4.6-12,6.8L893.2,657.5z"/>
<path class="st1" d="M943.5,612.6l-0.6,1c13.8-15.1,25.7-31.8,35.5-49.7l-85.4,9.5c-15.6,13-31.1,24.9-46.5,35.6L943.5,612.6z"/>
<path class="st1" d="M893.4,436.9c-14.2,3.3-28,8-41.2,14l4.1,149.4c13.2-9.6,25.4-19.2,36.6-28.5l-0.6-134.3L893.4,436.9z"/>
<path class="st1" d="M837,458.3l1.1-0.5l6.3,150.9c3.3-2.3,6.5-4.5,9.7-6.8L850,451.9l1.1-0.5C846.4,453.5,841.7,455.8,837,458.3z"
	/>
<path class="st1" d="M912.6,642.5l-0.7,1c10.7-8.9,20.7-18.6,30.1-28.8l-98.4-3.6c-10.3,7.1-20.5,13.6-30.7,19.6L912.6,642.5z"/>
<path class="st1" d="M751.5,660.4c-24.9,9.3-48.8,14.7-71.6,16.2c18.9,6,96.7,28.1,163.7,7.2L751.5,660.4z"/>
<path class="st1" d="M788.7,492.5c-9.6,9.3-18.6,19.2-26.8,29.7l1.2-0.5l-9.9,136.3c13.9-5.3,27.4-11.5,40.5-18.4L788.7,492.5z"/>
<path class="st1" d="M941.7,527.3c31.3-30.9,50.6-54.5,50.9-54.8l0.8,0.2c-7.1-19.4-22.6-31.7-43.2-36.8L941.7,527.3z"/>
<path class="st1" d="M795.5,640.4c-1.2,0.7-2.5,1.3-3.7,2c-11.9,6.2-24.1,11.7-36.6,16.6l91.2,23.2l-0.7,1c11.8-3.8,23-9,33.5-15.6
	c4.1-2.6,8.1-5.3,12.1-8.1L795.5,640.4z"/>
<path class="st1" d="M895.1,569.8c16.4-13.8,31.3-27.6,44.3-40.3L948,436l1.1-0.5c-15.7-3.7-34.3-3.4-54.6,1L895.1,569.8z"/>
<path class="st1" d="M751.1,658.7l9.8-135.3c-49.6,62.9-83,146.1-85.1,151.4C701.1,673.9,726.5,667.9,751.1,658.7z"/>
<path class="st1" d="M796,638.2L796,638.2c16-8.5,31.3-17.9,46.2-28.1l-6.3-151.3c-6.4,3.4-12.8,7.2-19.3,11.3
	c-9.2,5.9-17.8,12.7-25.7,20.2L796,638.2z"/>
<path class="st1" d="M712.1,338.6l-20.9,51.3c3.8,17.9,7.5,38.1,10.4,59.6l37-75.8l0.6,0.9c-8.2-14.5-17.6-27-27.8-36.9L712.1,338.6
	z"/>
<path class="st1" d="M690.5,386.7l20.2-49.7c-11.5-11-24.1-18.7-37.2-22.2c-0.7-0.2-1.4-0.3-2-0.5C673.1,319.1,682,347,690.5,386.7z
	"/>
<path class="st1" d="M773.2,497.8l0.4,1.1c-0.4-7.8-1.1-15.5-2.1-23.1l-63.9,78.5l-0.2-0.5c-0.2,4.7-0.4,9.3-0.7,13.8L773.2,497.8z"
	/>
<path class="st1" d="M762.2,431.2l0.5,1.1c-5.4-19.7-13.1-38.7-22.9-56.6l-37.7,77.2c2.6,20.2,4.4,39.6,5.2,58.4L762.2,431.2z"/>
<path class="st1" d="M586.9,379.5c-4.8,13.7-8.3,27.9-10.2,42.3L705,498.2c-1-16.2-2.6-31.8-4.5-46.2l-113.8-71.4L586.9,379.5z"/>
<path class="st1" d="M574.8,438.6l0.1-1.2l130.8,75.4c-0.2-4-0.3-7.9-0.6-11.9l-128.9-76.7l0.1-1.2
	C575.8,428.1,575.2,433.3,574.8,438.6z"/>
<path class="st1" d="M770.9,473.3l0.5,1.1c-1.8-13.8-4.6-27.4-8.3-40.8l-55.7,81.1c0.5,12.5,0.5,24.6,0.1,36.4L770.9,473.3z"/>
<path class="st1" d="M699.7,619c-5.5,26-13.7,49.1-24.6,69.2c15.2-12.7,75.4-66.6,93.7-134.4L699.7,619z"/>
<path class="st1" d="M577.8,497.7c2.7,13.1,6.3,26,10.7,38.6l0.2-1.3l109.8,81.3c2.9-14.6,5-29.3,6.1-44.1L577.8,497.7z"/>
<path class="st1" d="M689.1,387.1c-9.3-43-18.9-71.9-19.1-72.3l0.6-0.5c-20.2-4.3-38.8,2.1-54.3,16.8L689.1,387.1z"/>
<path class="st1" d="M706.4,571.1c-0.1,1.4-0.2,2.8-0.3,4.2c-1.1,13.4-3,26.6-5.6,39.8l68.4-64.6l0.4,1.1c3.1-12,4.7-24.3,4.7-36.6
	c0-4.9-0.1-9.7-0.4-14.5L706.4,571.1z"/>
<path class="st1" d="M700.1,449.2c-2.9-21.3-6.6-41.2-10.3-58.9l-74.4-57.3l0.2-1.2c-11.5,11.3-21.2,27.2-28.3,46.6L700.1,449.2z"/>
<path class="st1" d="M698.1,618.5l-109-80.7c26.5,75.5,78.9,148.3,82.3,153C684.2,668.8,692.7,644.2,698.1,618.5z"/>
<path class="st1" d="M704.8,569.5L704.8,569.5c1.4-18,1.7-36,1-54l-131.2-75.6c-0.5,7.2-0.8,14.7-0.8,22.3
	c0.1,10.9,1.2,21.8,3.3,32.5L704.8,569.5z"/>
<g>
	<ellipse class="st2" cx="553" cy="778.6" rx="553" ry="47.7"/>
	<path class="st3" d="M745,722.1c0,62.2-86.7,43-192.8,43s-191.5,19.2-191.5-43s86.7-75.7,192.8-75.7S745,659.9,745,722.1z"/>
	<path class="st2" d="M745,706.8c0,62.2-86.7,43-192.8,43s-191.5,19.2-191.5-43s86.7-75.7,192.8-75.7S745,644.6,745,706.8z"/>
</g>
<g class="st4">
	<path class="st5" d="M766,447.6c0,0,0,104.4,5.6,127.5s25.5,106.8,25.5,106.8l27.1-5.6c0,0-4.8-110.8-9.6-126.7s5.6-81.3,19.1-95.6
		s-6.4-23.1-6.4-23.1L766,447.6z"/>
	<path class="st6" d="M766,447.6c0,0,0,104.4,5.6,127.5s25.5,106.8,25.5,106.8l27.1-5.6c0,0-4.8-110.8-9.6-126.7s5.6-81.3,19.1-95.6
		s-6.4-23.1-6.4-23.1L766,447.6z"/>
	<path class="st5" d="M831.3,661.9c0,0-35.9,14.3-38.2,14.3s-4,41.4-4,41.4s2.4,24.7-36.7,32.7s31.1,25.5,43.8,16.7
		s18.3-15.1,18.3-15.1l4.8-8l-1.6,13.5l5.6,0.8l12.7-25.5c0,0,3.2-19.1-0.8-23.9S831.3,661.9,831.3,661.9z"/>
	<polygon class="st7" points="651.2,512.1 656.8,543.2 683.1,540.8 678.3,518.5 	"/>
	<path class="st5" d="M780.3,380.7l-4.8,8c0,0-137.9-19.1-137.9,31.9s-6.4,81.3-8,83.7s41.4,27.9,51,26.3c0,0,6.4-8.8,5.6-19.9
		s6.4-52.6,0-55c0,0,8-3.2,7.2-8c0,0,112.4,15.9,126.7,12.7s23.9-13.5,26.3-19.9s7.5-31.2,7.5-31.2l-1.1-42.1L840.1,352l-19.1-2.4
		l-29.5,18.3L780.3,380.7z"/>
	<path class="st7" d="M865.6,456.4c0,0-11.2,25.5,1.6,25.5s17.5-22.3,17.5-22.3L865.6,456.4z"/>
	<path class="st8" d="M780.3,250l-4-4.8c0,0-44.6-100.4-27.1-127.5s94-31.1,96.4-29.5s9.6,7.2,8.8,8.8s-16.7,5.6-11.2,15.1
		c0,0-8,2.4-9.6-0.8s-6.4-4-8-0.8s-27.1,10.4-27.1,12.7s-4,14.3-8,15.9s0.8,25.5,8.8,31.9S813,195,813,195l-4,35.9L780.3,250z"/>
	<path class="st5" d="M803.1,115.9c-4.8,2.4-9.5,5.5-12.4,10.4c-5.9,10-2.1,23.7-5.8,34.9c-1.6,4.8-4.4,8.9-6.7,13.3
		s-4.2,9.4-3.6,14.4c0.6,5,3.5,9.2,4.9,13.9c2.4,8.2,0,17.1-2.7,25.1c-1.5,4.4-3,8.8-4.7,13.1c-1,2.5-2.1,5.2-4.3,6.4l18.9,1.5
		c5.5,0.4,11.5,0.7,15.8-3.1c1.8-1.7,3.2-3.7,4.1-5.9c4.3-8.9,4.9-19.4,4.5-29.4s-2.1-20.1-2-30.1c-0.1-3.3,0.4-6.6,1.3-9.8
		c1-2.5,2.2-4.9,3.5-7.2c4.3-8.3,6.1-17.9,7.8-27.2c1.2-6.4,3.1-15.8-0.3-21.8C818.1,108.5,807.7,113.6,803.1,115.9z"/>
	<circle class="st7" cx="821.8" cy="153.5" r="32.7"/>
	<path class="st7" d="M809,181.4c0,0,5.2,20.3,2,30.7s43.4-13.9,43.4-13.9s-14.3-19.1-14.3-25.5L809,181.4z"/>
	<path class="st8" d="M868.8,212.5c0,0-10.4-8-10.4-12s-7.2-12.7-7.2-12.7s-34.3,17.5-35.9,17.5S813,195,813,195l-36.7,50.2
		c0,0-12,28.7-8,51s10.4,45.4,7.2,66.1s0.8,27.9,5.6,25.5s0-10.4,10.4-9.6s45.4-10.4,47.8-15.1s12,10.4,12.7,19.1s-1.6,32.7,0,31.9
		s4-14.3,4.8-20.7s3.2-27.1,0-30.3s-0.8-8,1.6-9.6s41.4-100.4,41.4-100.4s-4-20.7-17.5-27.9S868.8,212.5,868.8,212.5z"/>
	<path class="st8" d="M887.1,239.6l12.7,13.5v71.7c0,0,16.7,86.1,6.4,90.8s-15.1,3.2-15.1,3.2s2.4,43.8-4.8,43.8s-18.3-3.2-24.7-1.6
		c0,0,1.6-15.9,6.4-23.1s4.8-19.9,4.8-19.9s-7.2,0-7.2-10.4s-0.8-16.7-1.6-19.1s-6.4-44.6-6.4-44.6L887.1,239.6z"/>
	<path class="st5" d="M814.8,114.2c5.5-3.5,12.8-0.9,19.2-2.1c7-1.4,12.8-7.5,19.9-7.1c5.9,0.3,10.6,4.9,14.4,9.4
		c3.6,4,6.6,8.4,9.2,13.1c2.6,5.3,4,11,5.4,16.7l4.7,19.1c1.6,6.5,3.2,13,6.1,19s7.2,11.5,13.1,14.7c-7.2,2.2-14.8,2.2-22,0.1
		c2.8,7.2,7.3,13.6,13.3,18.5c-5.3,1.6-11,0-16.6,0.3c-8.1,0.6-15.3,5.3-19.1,12.5c-2.9,5.6-3.3,12.2-5.1,18.3
		c-5.2,18.2-23.1,32-42.1,32.3c5.3-7.7,10.9-16.5,8.8-25.6c-1.2-5.5-5.2-10.1-6.3-15.6c-1.2-5.9,0.8-11.9,2.2-17.8s2-12.6-1.7-17.4
		c-3.8-5.1-11.6-6.8-14.1-12.7c-0.8-2.2-1.1-4.5-1-6.8l-0.2-10.5c-0.1-2.2,0-4.4,0.6-6.5c0.8-2.8,2.7-5.2,4.5-7.5
		c3.4-4.4,6.7-9.1,8-14.5c1.6-6.6-0.9-10.6-4.1-15.9C809.3,123.8,810,117.3,814.8,114.2z"/>
	<path class="st7" d="M849.6,93.8c0,0,36.7,31.9,27.1,43S852,116.1,852,116.1l-15.9-12L849.6,93.8z"/>
	<path class="st5" d="M696.6,521.7c0,0-42.2,10.4-47,19.1c0,0-5.6,27.1-5.6,38.2s-2.4,31.9-24.7,35.9s-38.2,11.2-8,16.7
		s39,7.2,47.8-4.8s13.5-15.1,13.5-15.1l6.4,15.9h4l15.1-32.7c0,0,1.6-15.9-2.4-25.5S696.6,521.7,696.6,521.7z"/>
	<path class="st8" d="M854,96.6c0,0-1.2,12.7-18.5,15.1l-3.8-12l12-10.4L854,96.6z"/>
</g>
<circle class="st1" cx="428.5" cy="500.6" r="86"/>
<path class="st1" d="M384.8,372.9L384.8,372.9c-32.9,11.1-68.9-4.7-83-36.5L208.5,127c-20.3-45.5,0.2-98.9,45.7-119.2
	c2.6-1.2,5.3-2.2,8-3.1l0,0c47.3-15.9,98.4,9.6,114.3,56.9c1,3,1.8,6,2.5,9l50,223.6C436.7,327.9,417.5,361.9,384.8,372.9z"/>
<circle class="st3" cx="428.5" cy="500.6" r="86"/>
<path class="st3" d="M384.8,372.9L384.8,372.9c-32.9,11.1-68.9-4.7-83-36.5L208.5,127c-20.3-45.5,0.2-98.9,45.7-119.2
	c2.6-1.2,5.3-2.2,8-3.1l0,0c47.3-15.9,98.4,9.6,114.3,56.9c1,3,1.8,6,2.5,9l50,223.6C436.7,327.9,417.5,361.9,384.8,372.9z"/>
<circle class="st1" cx="425.3" cy="491.1" r="69"/>
<path class="st1" d="M376.6,348.2L376.6,348.2c-30.2,10.1-63.2-4.4-76.2-33.5l-85.5-192.1c-18.6-41.8,0.2-90.8,42-109.4
	c2.4-1.1,4.9-2,7.3-2.9l0,0c43.4-14.6,90.3,8.8,104.9,52.2c0.9,2.7,1.7,5.5,2.3,8.3L417.3,276C424.2,307,406.6,338.1,376.6,348.2z"
	/>
<g>
	
		<rect x="730.2" y="406.5" transform="matrix(0.9649 0.2627 -0.2627 0.9649 155.7928 -184.5025)" class="st9" width="75.4" height="167.8"/>
	<path class="st10" d="M620.9,551.8l257.3,66.6c8,2,16.1-2.8,18.1-10.8c0.6-2.4,0.6-4.8,0-7.2l-66.8-272.2c-2-8-10-12.9-18-10.9
		c-2.8,0.7-5.4,2.2-7.4,4.3L613.7,527.3c-5.6,6-5.2,15.5,0.8,21C616.4,550,618.5,551.2,620.9,551.8z M777.2,545.7l-32.7-8.5
		l8.5-32.7l32.7,8.5L777.2,545.7z M791.3,491.2l-32.7-8.5l16.9-65.5l32.7,8.5L791.3,491.2z"/>
</g>
</svg>
